<svg width="25" height="24" viewBox="0 0 25 24" fill="none" xmlns="http://www.w3.org/2000/svg">
<mask id="mask0_1704_645" style="mask-type:alpha" maskUnits="userSpaceOnUse" x="0" y="0" width="25" height="24">
<rect x="24.584" y="24" width="24" height="24" transform="rotate(-180 24.584 24)" fill="#D9D9D9"/>
</mask>
<g mask="url(#mask0_1704_645)">
<path d="M12.5836 8.1251L7.68359 13.0001L9.50859 14.7751L12.5836 11.7001L15.6586 14.7751L17.4836 13.0001L12.5836 8.1251ZM12.5836 1.5251C14.0503 1.5251 15.4169 1.8001 16.6836 2.3501C17.9503 2.9001 19.0543 3.64576 19.9956 4.5871C20.9376 5.5291 21.6836 6.63343 22.2336 7.9001C22.7836 9.16676 23.0586 10.5334 23.0586 12.0001C23.0586 13.4668 22.7836 14.8334 22.2336 16.1001C21.6836 17.3668 20.9376 18.4711 19.9956 19.4131C19.0543 20.3544 17.9503 21.1001 16.6836 21.6501C15.4169 22.2001 14.0503 22.4751 12.5836 22.4751C11.1169 22.4751 9.75026 22.2001 8.48359 21.6501C7.21693 21.1001 6.11259 20.3544 5.17059 19.4131C4.22926 18.4711 3.48359 17.3668 2.93359 16.1001C2.38359 14.8334 2.10859 13.4668 2.10859 12.0001C2.10859 10.5334 2.38359 9.16676 2.9336 7.9001C3.4836 6.63343 4.22926 5.5291 5.17059 4.5871C6.11259 3.64576 7.21693 2.9001 8.48359 2.3501C9.75026 1.8001 11.1169 1.5251 12.5836 1.5251Z" fill="white"/>
</g>
</svg>
